<svg width="144" height="35" viewBox="0 0 144 35" fill="none" xmlns="http://www.w3.org/2000/svg">
<g clip-path="url(#clip0_80_3282)">
<g clip-path="url(#clip1_80_3282)">
<mask id="mask0_80_3282" style="mask-type:luminance" maskUnits="userSpaceOnUse" x="0" y="-1" width="143" height="36">
<path d="M142.964 -0.000244141H0.880371V34.5458H142.964V-0.000244141Z" fill="white"/>
</mask>
<g mask="url(#mask0_80_3282)">
<path d="M35.1396 30.2519V28.9355H29.4629V34.4295H30.8873V32.3531H34.1139V31.0658H30.8873V30.2519H35.1396Z" fill="#EFEFEF"/>
<path d="M48.4737 28.9355H47.0493V34.4295H48.4737V28.9355Z" fill="#EFEFEF"/>
<path d="M60.3076 30.2436H62.8532V34.4295H64.2775V30.2436H66.8231V28.9355H60.3076V30.2436Z" fill="#EFEFEF"/>
<path d="M83.5381 32.1455L79.0615 28.8566H78.5757V34.4295H80.0042V31.2028L84.497 34.5457H84.967V28.9355H83.5381V32.1455Z" fill="#EFEFEF"/>
<path d="M98.6039 32.2576H101.619V30.9745H98.6039V30.2519H102.781V28.9355H97.1797V34.4295H102.985V33.109H98.6039V32.2576Z" fill="#EFEFEF"/>
<path d="M118.557 30.9746L117.02 30.904C115.999 30.8583 115.999 30.6798 115.999 30.5842C115.999 30.2894 116.585 30.115 117.56 30.115C118.806 30.115 119.42 30.3559 119.898 30.6175L120.172 30.767L120.795 29.6084L120.521 29.4589C119.74 29.0311 118.852 28.8525 117.556 28.8525C115.662 28.8525 114.575 29.5087 114.575 30.6465C114.575 32.0958 116.235 32.1871 116.863 32.2204L118.399 32.291C119.537 32.345 119.537 32.5194 119.537 32.673C119.537 33.0385 118.889 33.2585 117.805 33.2585C116.501 33.2585 115.72 32.9264 115.301 32.6481L115.048 32.4779L114.284 33.5783L114.554 33.7527C115.36 34.276 116.393 34.521 117.805 34.521C119.824 34.521 120.982 33.8233 120.982 32.6107C120.982 31.0909 119.342 31.012 118.557 30.9746Z" fill="#EFEFEF"/>
<path d="M136.464 30.9744L134.927 30.9038C133.905 30.8582 133.905 30.6796 133.905 30.5841C133.905 30.2893 134.487 30.1148 135.467 30.1148C136.713 30.1148 137.331 30.3557 137.809 30.6132L138.083 30.7627L138.706 29.6041L138.432 29.4546C137.647 29.0269 136.763 28.8483 135.467 28.8483C133.573 28.8483 132.49 29.5044 132.49 30.6423C132.49 32.0915 134.146 32.1829 134.778 32.2161L136.314 32.2867C137.452 32.3407 137.452 32.5151 137.452 32.6688C137.452 33.0342 136.804 33.2543 135.72 33.2543C134.416 33.2543 133.635 32.922 133.216 32.6438L132.963 32.4777L132.199 33.574L132.469 33.7484C133.275 34.2717 134.308 34.5167 135.72 34.5167C137.739 34.5167 138.893 33.819 138.893 32.6064C138.893 31.0866 137.253 31.0077 136.468 30.9703L136.464 30.9744Z" fill="#EFEFEF"/>
<path d="M26.5422 11.8931H29.3826V13.1015L29.5238 12.9396L29.7024 12.7194C30.2713 12.0384 31.0728 11.6937 31.978 11.6522H32.3186V14.2268C32.1773 14.1853 32.0362 14.1646 31.895 14.148C30.2838 14.0067 29.4989 14.8331 29.4989 16.4236V22.3246H26.5381V11.8931H26.5422Z" fill="#EFEFEF"/>
<path d="M35.7193 15.9792C36.1844 15.9168 36.6454 15.8961 37.1063 15.9583C38.0739 16.058 38.7176 16.2989 39.2616 16.7017V15.9792C39.2616 14.9119 38.5763 14.2475 36.8655 14.044C36.2218 13.9651 35.2168 13.9651 34.0873 14.1062C33.9254 14.1271 33.7634 14.1478 33.6056 14.1852V11.9302C34.2077 11.8306 34.731 11.7891 35.3165 11.7476C40.2083 11.5648 42.102 13.1553 42.102 16.1577V22.3202H39.1826V21.3942C39.083 21.4731 38.9626 21.5769 38.8629 21.6558C38.0572 22.2206 37.1935 22.503 36.0847 22.4822C33.5682 22.4822 32.0774 20.9332 32.1563 19.2597C32.1937 17.6277 33.4644 16.2573 35.7193 15.9792ZM36.8488 20.6717C37.1105 20.6924 37.3513 20.6924 37.5921 20.6509C38.0572 20.5886 38.377 20.4682 38.6386 20.2896C39.382 19.8079 39.465 18.8403 38.9002 18.3171C38.6179 18.0555 38.1528 17.8353 37.5921 17.7731C36.0432 17.5696 35.1546 18.2756 35.0964 19.2223C35.1131 19.9657 35.6986 20.572 36.8488 20.6717Z" fill="#EFEFEF"/>
<path d="M44.3247 11.8931H47.1651V13.0226C47.244 12.9437 47.3271 12.8607 47.406 12.7818C48.2324 12.0592 49.0754 11.7145 50.0845 11.6938C52.6217 11.6315 54.1915 13.3424 54.1915 16.324V22.3246H51.2306V16.706C51.2514 15.1737 50.7074 14.3889 49.6401 14.1106C48.1701 13.7494 47.2855 14.555 47.2855 16.1662V22.3288H44.3247V11.8931Z" fill="#EFEFEF"/>
<path d="M55.9775 16.1619C56.1975 14.7542 56.9658 13.5458 58.0704 12.7608C60.1052 11.3116 62.7629 11.6148 64.0087 13.1014V11.893H66.8491V22.2622C66.8491 25.1815 64.8932 26.9962 60.9066 27.0543C60.3045 27.0543 59.6982 27.0128 59.0753 26.9132V24.3343C59.64 24.4963 60.2007 24.5752 60.7654 24.5544C62.8999 24.5129 63.8674 23.6284 63.8674 22.1002V21.3361C62.8003 22.5653 60.7654 23.0263 58.7722 22.121C57.2024 21.415 56.1559 19.9865 55.9318 18.1552C55.8944 17.8313 55.8487 17.4908 55.8695 17.1668C55.8695 16.8263 55.9109 16.5024 55.9691 16.1619M58.9092 17.5697C59.1127 19.3428 60.3584 20.3063 61.9697 20.028C63.0784 19.8453 63.8425 18.9816 64.0045 17.5904C64.046 17.2665 64.046 16.9468 64.0045 16.6436C63.8052 15.0116 62.8376 14.1271 61.4464 14.1271C60.0554 14.1271 59.1085 15.0116 58.9092 16.6228C58.8884 16.7848 58.8677 16.9468 58.8677 17.1046C58.8677 17.2623 58.8884 17.4077 58.9092 17.5697Z" fill="#EFEFEF"/>
<path d="M79.8263 11.8931H80.9932V9.23538L82.5006 8.61255V11.8931H85.2997L85.0172 13.0019H82.5006V18.8156L82.5421 19.4634C82.5629 20.6926 83.327 21.357 84.8964 21.2574C85.0172 21.2574 85.1372 21.2366 85.2581 21.2159V22.3827C85.1372 22.4035 85.0172 22.4243 84.8964 22.4243C81.9358 22.6651 80.9932 21.6394 80.9932 18.5374V13.0019H79.6436L79.8263 11.8931Z" fill="#EFEFEF"/>
<path d="M86.573 7.82354L88.1014 7.49963V13.5791C88.2839 13.3175 88.5038 13.0766 88.7447 12.8565C89.3305 12.3125 90.0364 11.9513 90.8172 11.7894C93.8572 11.1457 96.1122 13.0975 96.1122 16.2576V22.3164H94.5797V16.76C94.5797 14.202 93.4122 12.9147 91.378 12.9562C89.343 12.977 88.0972 14.3266 88.0972 16.4985V22.3164H86.5688V7.82354H86.573Z" fill="#EFEFEF"/>
<path d="M98.1931 14.9576C98.9031 13.2093 100.423 12.0216 102.316 11.731C105.543 11.241 108.33 13.554 108.483 16.7889C108.487 17.0007 108.483 17.2291 108.466 17.4534H99.3806C99.3681 17.5198 99.3722 17.6444 99.3681 17.7274C99.4589 19.0687 100.194 20.19 101.456 20.8295C103.031 21.6392 104.932 21.3278 106.357 19.945C106.415 19.8785 106.498 19.8162 106.561 19.729L107.698 20.5221C107.382 20.9166 107.017 21.253 106.598 21.5561C105.198 22.5486 103.55 22.8476 101.839 22.3784C98.7697 21.5312 97.2622 18.9441 97.8731 16.004C97.9481 15.647 98.0472 15.2981 98.1806 14.9617M106.988 16.3445L106.98 16.1535L106.946 15.9169C106.926 15.7507 106.905 15.676 106.839 15.4476C106.402 13.9277 105.041 12.8854 103.334 12.8522C101.602 12.8355 100.174 13.8613 99.6047 15.5431C99.5339 15.7965 99.4589 16.0664 99.4472 16.3363L106.984 16.3445H106.988Z" fill="#EFEFEF"/>
<path d="M116.655 11.6107C119.511 12.0343 121.285 14.1479 121.285 17.0673C121.285 19.9866 119.511 22.1003 116.655 22.5239C112.85 23.0679 110.068 20.6095 110.068 17.0673C110.068 13.525 112.846 11.0667 116.655 11.6107ZM115.001 21.1535C115.446 21.2324 115.907 21.2324 116.368 21.1535C118.665 20.7507 120.051 18.7574 119.611 16.1786C119.449 15.2734 119.067 14.5466 118.445 13.9653C117.738 13.3008 116.791 12.9395 115.687 12.9395C114.582 12.9395 113.631 13.3008 112.93 13.9653C112.124 14.7127 111.684 15.7592 111.684 17.0673C111.684 19.2433 112.971 20.8129 115.005 21.1535" fill="#EFEFEF"/>
<path d="M123.308 11.893H124.799V13.3631C124.857 13.2842 124.899 13.2011 124.961 13.1222C125.684 12.1172 126.61 11.6107 127.818 11.594C127.959 11.594 128.1 11.594 128.241 11.6148V13.0433C128.1 13.0226 127.938 13.0017 127.776 13.0017C126.85 12.9602 126.045 13.2842 125.5 13.8863C125.035 14.4303 124.836 14.9951 124.836 15.9211V22.3245H123.304V11.893H123.308Z" fill="#EFEFEF"/>
<path d="M129.487 11.893H131.02V17.5904C131.02 19.783 131.763 20.8129 133.495 21.1326C133.96 21.2157 134.421 21.2157 134.886 21.1119C136.638 20.788 137.444 19.7415 137.444 17.9101V11.8888H138.956V21.876C138.956 24.7537 136.862 26.6474 132.594 26.3857C132.332 26.3857 132.091 26.3442 131.851 26.3235V25.0361C132.091 25.0776 132.336 25.0943 132.577 25.115C135.899 25.2977 137.431 23.9481 137.431 21.6102V20.6634C137.352 20.7838 137.249 20.8835 137.17 20.9873C136.265 21.9922 135.218 22.4573 133.765 22.4573C131.248 22.4573 129.678 20.9457 129.516 18.6327C129.496 18.3504 129.496 18.3379 129.496 17.7482V11.8888L129.487 11.893Z" fill="#EFEFEF"/>
<path d="M141.875 8.04358C142.954 8.04358 143.793 8.88238 143.793 9.92888C143.793 10.9754 142.954 11.8266 141.862 11.8266C140.77 11.8266 139.919 11.0003 139.919 9.92888C139.919 8.85746 140.782 8.04358 141.862 8.04358H141.875ZM141.85 8.42146C141.023 8.42146 140.401 9.09838 140.401 9.92888C140.401 10.7595 141.023 11.4363 141.871 11.4363C142.696 11.4488 143.307 10.7677 143.307 9.92888C143.307 9.09005 142.696 8.42146 141.858 8.42146H141.846H141.85ZM141.563 10.9048H141.127V9.03188C141.301 8.99871 141.542 8.9613 141.85 8.9613C142.206 8.9613 142.369 9.01946 142.506 9.1108C142.61 9.18971 142.689 9.33921 142.689 9.51363C142.689 9.73371 142.526 9.89155 142.298 9.96213V9.98705C142.481 10.0451 142.585 10.1946 142.643 10.448C142.701 10.7345 142.734 10.8508 142.78 10.9089H142.311C142.252 10.8383 142.219 10.6805 142.161 10.4605C142.128 10.2528 142.011 10.1615 141.771 10.1615H141.563V10.9089V10.9048ZM141.576 9.8458H141.783C142.024 9.8458 142.219 9.76696 142.219 9.5718C142.219 9.39738 142.091 9.28521 141.816 9.28521C141.7 9.28521 141.621 9.29771 141.576 9.31013V9.84996V9.8458Z" fill="#EFEFEF"/>
<path d="M79.2266 17.9019C79.2431 17.6195 79.2431 17.3122 79.2431 17.0257C79.1601 13.9694 77.0671 11.8141 74.1063 11.6314C73.3837 11.594 72.6695 11.6854 71.9967 11.918C70.1654 12.5533 68.9155 14.0275 68.4961 15.892C67.869 18.6619 69.3723 21.5563 72.4992 22.4117C74.613 23.0055 76.6104 22.4366 78.1551 20.8212C78.2465 20.7215 78.313 20.6344 78.4043 20.5347L76.137 18.9982C76.083 19.0439 76.0456 19.0979 75.9916 19.1435C75.5722 19.592 75.1652 19.8536 74.7126 19.9782C73.9568 20.2066 73.2218 20.1444 72.6445 19.8163C71.8265 19.3761 71.3821 18.583 71.4237 17.906H71.4486H79.2266V17.9019ZM74.1894 13.7866C75.4601 13.8074 76.4401 14.6504 76.5813 15.9211V16.0415H71.5275C71.569 15.8879 71.594 15.7342 71.6562 15.5847C72.0591 14.4427 73.0474 13.7575 74.1894 13.7866Z" fill="#EFEFEF"/>
<path d="M25.953 23.5537C23.9929 23.836 23.0129 22.204 23.6565 20.7922C24.1922 19.6169 24.4539 18.3545 24.4539 17.0091C24.4539 15.6636 24.2129 14.4261 23.6773 13.2509C23.2039 12.1047 23.997 10.1821 25.9571 10.4686C27.0077 10.6222 27.8258 9.63392 27.8258 8.27186C27.8258 6.90978 27.0077 5.59339 25.9571 5.31932C24.8525 5.03278 23.9181 5.9962 23.9181 7.48285C23.9181 10.0741 22.4979 11.1164 21.3476 10.1447C20.3344 9.28092 19.1509 8.7245 17.793 8.50858C16.3894 8.28432 15.0065 8.48783 13.769 9.03592C13.6445 9.08992 13.5116 9.13558 13.3745 9.15225C12.0083 9.33075 9.8572 7.71955 9.8572 4.63827C9.8572 2.70314 8.20448 0.70986 6.04094 0.149251C3.72791 -0.448732 1.72218 0.801218 1.72218 2.98552C1.72218 5.16982 3.72376 7.23369 6.04094 7.57006C9.24678 8.03516 10.8664 9.94542 10.5507 11.4943C10.5134 11.6687 10.4428 11.8348 10.3473 11.9843C9.45445 13.363 8.91458 15.0739 8.91458 17.0049C8.91458 18.8487 9.41287 20.4932 10.2351 21.8427C10.3265 21.9922 10.393 22.1542 10.422 22.3286C10.6836 23.7488 9.29662 25.9581 6.03263 26.4314C3.7196 26.7678 1.71387 28.8317 1.71387 31.016C1.71387 33.2002 3.7196 34.4544 6.03679 33.8522C8.20033 33.2917 9.85312 31.3025 9.85312 29.3715C9.85312 26.2861 11.7384 24.4797 13.2915 24.7953C13.4036 24.8161 13.5116 24.8576 13.6154 24.9074C14.8945 25.5096 16.3312 25.7463 17.7971 25.5096C19.1468 25.2936 20.3178 24.7537 21.3269 23.8983C22.2695 23.1592 23.914 23.944 23.914 26.5352C23.914 28.0219 24.8484 28.9853 25.953 28.6988C27.0036 28.4247 27.8216 27.1083 27.8216 25.7463C27.8216 24.3842 27.0036 23.3958 25.953 23.5495V23.5537ZM17.7307 22.3245C14.9484 22.6359 12.4444 20.2731 12.4444 17.0091C12.4444 13.7451 14.9525 11.3822 17.7307 11.6937C20.2181 11.976 22.0494 14.3431 22.0494 17.0091C22.0494 19.6751 20.2181 22.0462 17.7307 22.3245Z" fill="#EFEFEF"/>
</g>
</g>
</g>
<defs>
<clipPath id="clip0_80_3282">
<rect width="142.5" height="35" fill="white" transform="translate(0.880371)"/>
</clipPath>
<clipPath id="clip1_80_3282">
<rect width="142.5" height="35" fill="white" transform="translate(0.880371)"/>
</clipPath>
</defs>
</svg>
