<svg width="89" height="27" viewBox="0 0 89 27" fill="none" xmlns="http://www.w3.org/2000/svg">
<g clipPath="url(#clip0_80_3320)">
<path fillRule="evenodd" clipRule="evenodd" d="M86.8807 4.06941C86.9735 4.43381 86.5651 4.78388 86.3528 5.05168C84.571 7.28305 82.595 9.92282 80.2211 11.6177C80.3922 12.5052 80.3014 13.6835 79.9915 14.334C80.6132 15.1258 81.2731 15.8756 81.6576 16.901C81.1517 19.579 79.9771 21.6564 78.0996 23.0145C76.2671 24.3383 73.7909 24.8605 70.9819 25.5051C65.5502 26.7533 56.6132 27.9842 52.5838 24.7496C48.2205 27.3014 39.4031 27.638 35.3219 24.5984C32.421 28.2587 20.9773 27.9373 22.6797 20.6741C20.5573 22.2762 17.4193 24.4846 14.4256 25.7318C10.9538 27.176 4.37922 27.0134 5.0363 22.1088C5.11569 21.5244 5.3634 21.1945 5.64268 20.6741C4.62694 18.9077 3.98517 17.6815 3.37114 16.1455C2.78293 14.6725 1.88579 12.9958 1.78058 10.9385C1.5606 6.56189 4.98274 3.78726 8.37045 2.48363C10.0987 1.81891 11.5028 0.855772 13.2148 0.37277C15.7732 -0.354125 17.9664 1.04898 18.1356 3.39129C21.1102 2.51137 24.7322 1.54059 28.6603 2.10871C31.7879 -0.315868 37.8957 1.18192 41.9099 2.33347C42.8176 2.59458 44.039 3.26887 44.7113 3.24018C45.2804 3.21722 46.3086 2.44729 46.9054 2.18331C49.7221 0.938026 53.4044 -0.3876 57.4301 0.296254C58.1923 0.424417 58.8895 0.827079 59.7006 0.898812C60.2515 0.949503 60.9248 0.777344 61.5179 0.749607C70.9263 0.291472 78.7586 2.80883 86.8807 4.06941ZM60.5346 3.76909C59.5734 3.88386 58.8915 4.93213 58.2631 5.27835C58.309 5.27357 58.352 5.26592 58.3377 5.20184C58.4525 4.68727 58.6725 4.27696 58.7164 3.69353C53.6779 1.92411 48.7743 4.51033 45.1656 6.48538C42.279 8.06351 39.7043 9.91897 37.8966 11.7678C38.5499 10.6583 39.2434 9.56033 40.0171 8.52355C40.8014 7.47051 41.6746 6.51789 42.3651 5.58059C40.8558 5.18653 39.3428 4.77048 37.8202 4.44721C35.6567 3.98812 32.6477 3.22774 30.8553 4.22149C30.3369 4.50842 29.9123 5.21523 29.4169 5.27835C29.0065 5.33095 28.3313 5.03255 27.8263 4.97707C25.9765 4.77144 24.2741 4.94265 22.6022 5.27835C21.0365 5.59111 17.7263 6.14584 17.3016 7.61685C17.03 8.56181 17.6364 9.47712 17.5293 10.4115C17.426 11.3297 16.5403 12.5464 16.0908 13.2789C15.5408 14.178 14.9814 14.9738 14.0459 15.3918C13.4797 12.5798 14.0957 10.0787 14.5767 7.69432C14.8733 6.22427 15.471 4.71979 14.9565 3.24018C13.5123 3.04028 12.2966 4.1794 10.8668 4.74849C8.18107 5.81969 5.19028 6.79622 4.81058 9.88165C4.59633 11.6196 5.2515 12.7243 5.71919 13.9581C6.64338 16.4267 7.8913 18.7617 9.43018 20.9018C9.02848 21.6363 8.08447 21.8276 7.98979 22.8625C8.41731 23.4651 9.3068 23.5454 10.1858 23.5425C12.726 23.5368 14.8091 22.2628 16.6962 21.203C20.8051 18.898 23.5653 15.3506 26.4644 11.9955C26.9731 11.4053 27.3921 10.6946 28.0549 10.3351C28.7053 13.3162 27.4399 14.9107 26.5389 17.3534C26.1918 18.2946 25.0966 21.2404 25.6304 22.6358C26.2157 24.1709 31.1997 24.2378 32.5206 23.2422C33.1862 22.7401 33.4511 21.6067 33.8088 20.9018C34.265 19.9951 34.6601 19.2128 35.0197 18.4112C35.0398 21.7177 37.5036 22.6884 40.1672 23.3924C45.8293 24.8844 51.5394 22.2188 54.6286 20.3748C54.2423 22.8242 55.1967 23.07 57.1278 23.4689C62.1204 24.4961 67.1484 23.3111 71.2094 22.3355C74.9329 21.4422 77.9266 20.811 78.4784 17.1267C77.8826 16.6131 76.3933 16.6772 75.3748 16.8264C72.3715 17.2644 69.464 18.7776 65.4565 18.4858C64.7248 18.4332 63.1457 18.1788 63.0319 17.7322C62.8559 17.0359 64.107 16.548 65.1552 16.374C68.1584 15.8671 72.5006 16.3788 74.9195 15.4653C76.0806 15.0293 77.4818 13.7687 77.3412 12.3723C77.2493 11.4292 76.0147 10.9357 74.843 10.864C71.5299 10.6573 69.1617 12.5855 65.685 11.9199C66.1193 11.3728 66.1978 10.4708 66.7429 10.0337C69.2861 9.9802 71.7566 10.4833 74.1629 10.3351C77.5085 10.1266 79.3947 8.72154 80.9776 6.86318C81.1469 6.66232 81.5716 6.44712 81.4319 6.1095C75.6206 5.22766 67.6993 2.89299 60.5346 3.76909ZM49.0258 9.57851C48.6528 11.2714 47.8732 13.2091 47.4362 15.0876C49.8426 15.1221 52.381 14.6323 54.8553 14.4841C55.19 14.0384 55.3546 13.4224 55.5373 12.8237C56.0336 13.5239 56.3828 14.8341 55.916 15.8422C52.1581 15.7896 49.4572 18.8579 45.771 18.8608C44.1202 18.8626 42.7171 17.9168 43.4986 16.0679C44.6023 13.4617 47.3396 11.6406 49.0258 9.57851ZM57.8088 6.7857C58.5165 7.59006 60.066 7.55564 60.988 8.14576C59.7437 8.46426 58.177 8.46234 57.0503 8.89847C57.3162 8.20601 57.5544 7.48773 57.8088 6.7857Z" fill="#EFEFEF"/>
</g>
<defs>
<clipPath id="clip0_80_3320">
<rect width="88" height="27" fill="white" transform="translate(0.380371)"/>
</clipPath>
</defs>
</svg>
