<svg width="113" height="25" viewBox="0 0 113 25" fill="none" xmlns="http://www.w3.org/2000/svg">
<g clipPath="url(#clip0_80_3308)">
<g clipPath="url(#clip1_80_3308)">
<path d="M10.9197 9.25599C10.9197 10.3356 10.4611 11.2907 9.71076 12.0381C8.87704 12.8686 7.66813 13.0762 7.66813 13.7821C7.66813 14.7371 9.21053 14.4465 10.6904 15.9206C11.67 16.8964 12.2745 18.1836 12.2745 19.6785C12.2745 22.6267 9.89836 24.9728 6.91777 24.9728C3.93718 24.9728 1.56104 22.6287 1.56104 19.6806C1.56104 18.1857 2.1655 16.8985 3.14513 15.9226C4.62499 14.4486 6.16741 14.7392 6.16741 13.7842C6.16741 13.0783 4.95849 12.8706 4.12476 12.0402C3.3744 11.2927 2.91585 10.3377 2.91585 9.21655C2.91585 7.05731 4.68753 5.31331 6.85524 5.31331C7.2721 5.31331 7.64727 5.37559 7.95993 5.37559C8.5227 5.37559 8.81451 5.12645 8.81451 4.73197C8.81451 4.50359 8.71029 4.21293 8.71029 3.9015C8.71029 3.19559 9.31475 2.61426 10.0443 2.61426C10.7738 2.61426 11.3574 3.21635 11.3574 3.94302C11.3574 4.71121 10.7529 5.06416 10.2944 5.23026C9.9192 5.35483 9.6274 5.52093 9.6274 5.89464C9.6274 6.59847 10.9197 7.28361 10.9197 9.25599ZM10.5028 19.6806C10.5028 17.6251 8.98125 15.9642 6.91777 15.9642C4.85428 15.9642 3.33272 17.6251 3.33272 19.6806C3.33272 21.7152 4.85428 23.3969 6.91777 23.3969C8.98125 23.3969 10.5028 21.7131 10.5028 19.6806ZM9.27306 9.21447C9.27306 7.90647 8.21004 6.82685 6.91777 6.82685C5.62547 6.82685 4.56247 7.90647 4.56247 9.21447C4.56247 10.5225 5.62547 11.6021 6.91777 11.6021C8.21004 11.6021 9.27306 10.5225 9.27306 9.21447Z" fill="#EFEFEF"/>
<path d="M18.4226 5.51883C19.0896 5.51883 19.5898 6.01711 19.5898 6.63997C19.5898 7.26283 19.1104 7.76112 18.4434 7.76112C17.7556 7.76112 17.3804 7.32512 16.6926 7.32512C16.0256 7.32512 15.5045 7.80264 15.5045 8.61235V15.1524C15.5045 15.6506 15.1085 16.0451 14.6083 16.0451C14.1289 16.0451 13.7329 15.6506 13.7329 15.1524V6.34931C13.7329 5.85102 14.1289 5.45654 14.6083 5.45654C15.5045 5.45654 15.3378 6.30778 16.2341 6.30778C17.0886 6.30778 17.4013 5.51883 18.4226 5.51883Z" fill="#EFEFEF"/>
<path d="M20.3608 10.7511C20.3608 7.61608 22.5286 5.35303 25.5091 5.35303C28.2396 5.35303 30.4073 7.34617 30.4073 10.066C30.4073 10.7096 29.9905 11.1456 29.386 11.1456H22.6119C22.3201 11.1456 22.2159 11.2494 22.2159 11.4778C22.2159 11.9968 22.6328 12.9519 23.2581 13.5747C23.8834 14.1976 24.7379 14.5713 25.9469 14.5713C26.8431 14.5713 27.6352 14.2391 28.2396 13.8031C28.4272 13.6578 28.6356 13.5747 28.8441 13.5747C29.2818 13.5747 29.6361 13.9692 29.6361 14.3845C29.6361 14.6336 29.5527 14.8412 29.3443 15.0281C28.4689 15.7547 27.2391 16.1492 25.9052 16.1492C22.6745 16.1492 20.3608 13.8239 20.3608 10.7511ZM27.7394 7.76141C27.1558 7.18008 26.4054 6.88941 25.5091 6.88941C24.6129 6.88941 23.7791 7.24236 23.1747 7.84446C22.6953 8.32198 22.3618 8.94484 22.3618 9.36008C22.3618 9.5677 22.4869 9.65074 22.7578 9.65074H28.1771C28.4272 9.65074 28.5523 9.5677 28.5523 9.36008C28.5523 8.86179 28.1562 8.17665 27.7394 7.76141Z" fill="#EFEFEF"/>
<path d="M32.1997 10.7511C32.1997 7.61608 34.3674 5.35303 37.348 5.35303C40.0785 5.35303 42.2462 7.34617 42.2462 10.066C42.2462 10.7096 41.8293 11.1456 41.2249 11.1456H34.4508C34.159 11.1456 34.0548 11.2494 34.0548 11.4778C34.0548 11.9968 34.4716 12.9519 35.0969 13.5747C35.7222 14.1976 36.5768 14.5713 37.7857 14.5713C38.682 14.5713 39.474 14.2391 40.0785 13.8031C40.2661 13.6578 40.4745 13.5747 40.6829 13.5747C41.1206 13.5747 41.475 13.9692 41.475 14.3845C41.475 14.6336 41.3916 14.8412 41.1832 15.0281C40.3078 15.7547 39.078 16.1492 37.744 16.1492C34.5133 16.1492 32.1997 13.8239 32.1997 10.7511ZM39.5782 7.76141C38.9946 7.18008 38.2443 6.88941 37.348 6.88941C36.4517 6.88941 35.618 7.24236 35.0136 7.84446C34.5342 8.32198 34.2007 8.94484 34.2007 9.36008C34.2007 9.5677 34.3257 9.65074 34.5967 9.65074H40.016C40.2661 9.65074 40.3911 9.5677 40.3911 9.36008C40.3911 8.86179 39.9951 8.17665 39.5782 7.76141Z" fill="#EFEFEF"/>
<path d="M52.6893 16.0454C52.189 16.0454 51.793 15.6509 51.793 15.1527V9.50541C51.793 8.03131 50.6258 6.91017 49.125 6.91017C47.6035 6.91017 46.4363 8.05208 46.4363 9.50541V15.1527C46.4363 15.6509 46.0402 16.0454 45.54 16.0454C45.0606 16.0454 44.6646 15.6509 44.6646 15.1527V6.32884C44.6646 5.85131 45.0606 5.45684 45.5192 5.45684C46.3946 5.45684 46.3529 6.24579 46.8114 6.24579C47.27 6.24579 47.8953 5.35303 49.5211 5.35303C51.793 5.35303 53.5647 7.24236 53.5647 9.50541V15.1527C53.5647 15.6509 53.1686 16.0454 52.6893 16.0454Z" fill="#EFEFEF"/>
<path d="M64.6535 16.0452C64.1533 16.0452 63.7573 15.6507 63.7573 15.1524V9.50517C63.7573 8.03107 62.59 6.90993 61.0893 6.90993C59.5678 6.90993 58.4005 8.05183 58.4005 9.50517V15.1524C58.4005 15.6507 58.0045 16.0452 57.5043 16.0452C57.0249 16.0452 56.6289 15.6507 56.6289 15.1524V1.15888C56.6289 0.66059 57.0249 0.266113 57.5043 0.266113C58.0045 0.266113 58.4005 0.66059 58.4005 1.15888V5.74726C58.4005 5.9964 58.5048 6.14174 58.7757 6.14174C59.2343 6.14174 59.8596 5.35278 61.4853 5.35278C63.7573 5.35278 65.5289 7.24212 65.5289 9.50517V15.1524C65.5289 15.6507 65.1329 16.0452 64.6535 16.0452Z" fill="#EFEFEF"/>
<path d="M67.9668 10.7511C67.9668 7.74065 70.3846 5.35303 73.4277 5.35303C76.4709 5.35303 78.8887 7.74065 78.8887 10.7511C78.8887 13.7616 76.4709 16.1492 73.4277 16.1492C70.3867 16.1492 67.9668 13.7616 67.9668 10.7511ZM77.1191 10.7511C77.1191 8.65417 75.5558 6.93093 73.4298 6.93093C71.3246 6.93093 69.7614 8.65417 69.7614 10.7511C69.7614 12.8481 71.3246 14.5713 73.4298 14.5713C75.5558 14.5713 77.1191 12.8481 77.1191 10.7511Z" fill="#EFEFEF"/>
<path d="M82.2012 5.45654C82.7014 5.45654 83.0974 5.85102 83.0974 6.34931V11.9965C83.0974 13.4706 84.2646 14.5918 85.7654 14.5918C87.2869 14.5918 88.4541 13.4499 88.4541 11.9965V6.34931C88.4541 5.85102 88.8502 5.45654 89.3504 5.45654C89.8298 5.45654 90.2258 5.85102 90.2258 6.34931V15.1731C90.2258 15.6506 89.8298 16.0451 89.3712 16.0451C88.4958 16.0451 88.5375 15.2562 88.079 15.2562C87.6204 15.2562 86.9951 16.1489 85.3693 16.1489C83.0974 16.1489 81.3257 14.2596 81.3257 11.9965V6.34931C81.3278 5.85102 81.7218 5.45654 82.2012 5.45654Z" fill="#EFEFEF"/>
<path d="M93.3726 15.381C92.9766 15.1319 92.7056 14.8827 92.7056 14.4052C92.7056 13.9485 93.06 13.5955 93.4977 13.5955C94.0188 13.5955 94.248 13.9069 94.6858 14.1353C95.2277 14.4467 95.853 14.6128 96.6242 14.6128C98.0415 14.6128 98.7502 13.9692 98.7502 13.1803C98.7502 12.0591 97.708 11.8515 96.2907 11.4778C94.5398 11.021 92.8515 10.502 92.8515 8.48808C92.8515 6.70255 94.2272 5.35303 96.6659 5.35303C97.6247 5.35303 98.5209 5.60217 99.2296 6.03817C99.4797 6.1835 99.7298 6.49493 99.7298 6.84789C99.7298 7.30465 99.3547 7.69912 98.8753 7.69912C98.5626 7.69912 98.3125 7.4915 97.9998 7.28389C97.6872 7.07627 97.2286 6.88941 96.6033 6.88941C95.2068 6.88941 94.6024 7.4915 94.6024 8.30122C94.6024 9.36008 95.6237 9.60922 97.0827 9.96217C98.7919 10.3774 100.48 10.9172 100.48 12.9727C100.48 14.7582 99.1462 16.1492 96.5825 16.1492C95.3319 16.1492 94.2064 15.9001 93.3726 15.381Z" fill="#EFEFEF"/>
<path d="M102.148 10.7511C102.148 7.61608 104.316 5.35303 107.296 5.35303C110.027 5.35303 112.194 7.34617 112.194 10.066C112.194 10.7096 111.777 11.1456 111.173 11.1456H104.399C104.107 11.1456 104.003 11.2494 104.003 11.4778C104.003 11.9968 104.42 12.9519 105.045 13.5747C105.67 14.1976 106.525 14.5713 107.734 14.5713C108.63 14.5713 109.422 14.2391 110.027 13.8031C110.214 13.6578 110.423 13.5747 110.631 13.5747C111.069 13.5747 111.423 13.9692 111.423 14.3845C111.423 14.6336 111.34 14.8412 111.131 15.0281C110.256 15.7547 109.026 16.1492 107.692 16.1492C104.464 16.1492 102.148 13.8239 102.148 10.7511ZM109.528 7.76141C108.945 7.18008 108.194 6.88941 107.298 6.88941C106.402 6.88941 105.568 7.24236 104.964 7.84446C104.484 8.32198 104.151 8.94484 104.151 9.36008C104.151 9.5677 104.276 9.65074 104.547 9.65074H109.966C110.216 9.65074 110.341 9.5677 110.341 9.36008C110.341 8.86179 109.945 8.17665 109.528 7.76141Z" fill="#EFEFEF"/>
</g>
</g>
<defs>
<clipPath id="clip0_80_3308">
<rect width="112" height="25" fill="white" transform="translate(0.380371)"/>
</clipPath>
<clipPath id="clip1_80_3308">
<rect width="112" height="25" fill="white" transform="translate(0.380371)"/>
</clipPath>
</defs>
</svg>
