<svg width="66" height="21" viewBox="0 0 66 21" fill="none" xmlns="http://www.w3.org/2000/svg">
<g clip-path="url(#clip0_80_3333)">
<g clip-path="url(#clip1_80_3333)">
<mask id="mask0_80_3333" style="mask-type:luminance" maskUnits="userSpaceOnUse" x="1" y="1" width="65" height="19">
<path d="M65.9606 1.21045H1.18701V19.7893H65.9606V1.21045Z" fill="white"/>
</mask>
<g mask="url(#mask0_80_3333)">
<path d="M19.3044 1.21045C16.337 1.21045 13.9221 3.62446 13.9221 6.59282V16.1772H11.9509V6.59636C11.9509 3.628 9.53686 1.21311 6.56938 1.21311C3.60191 1.21311 1.18701 3.628 1.18701 6.59548V19.5768H4.58398V6.59548C4.58398 5.50094 5.47396 4.61096 6.5685 4.61096C7.66304 4.61096 8.55302 5.50094 8.55302 6.59548V19.5768L17.3191 19.5723V6.59282C17.3191 5.49829 18.2091 4.6083 19.3036 4.6083C20.3982 4.6083 21.2881 5.49829 21.2881 6.59282V19.5741H24.6851V6.59282C24.6851 3.62534 22.271 1.21045 19.3027 1.21045H19.3044Z" fill="#EFEFEF"/>
<path d="M34.437 13.9117C34.437 15.279 33.3247 16.3922 31.9565 16.3922C30.5883 16.3922 29.4761 15.2799 29.4761 13.9117V6.59265H26.0791V13.9126C26.0791 17.1537 28.7154 19.79 31.9565 19.79C35.1976 19.79 37.8339 17.1537 37.8339 13.9126V6.59265H34.437V13.9126V13.9117Z" fill="#EFEFEF"/>
<path d="M65.9604 1.42041H62.5635V19.5733H65.9604V1.42041Z" fill="#EFEFEF"/>
<path d="M39.2285 19.574H42.6255V10.0126H47.6005V6.59265H39.2285V19.574Z" fill="#EFEFEF"/>
<path d="M57.7718 7.69963C56.718 6.89025 55.4198 6.41028 54.0171 6.41028C50.5032 6.41028 47.6455 9.41052 47.6455 13.0979C47.6455 16.7854 50.504 19.7856 54.0171 19.7856C55.4206 19.7856 56.718 19.3057 57.7718 18.4963V19.5731H61.1688V6.5927H57.7718V7.69963ZM57.7718 13.2609C57.6921 15.1834 56.215 16.7216 54.4085 16.7216C52.6019 16.7216 51.0415 15.0958 51.0415 13.0979C51.0415 11.1002 52.5523 9.47427 54.4085 9.47427C56.2645 9.47427 57.6921 11.0125 57.7718 12.935V13.26V13.2609Z" fill="#EFEFEF"/>
</g>
</g>
</g>
<defs>
<clipPath id="clip0_80_3333">
<rect width="65.45" height="20" fill="white" transform="translate(0.510254 0.5)"/>
</clipPath>
<clipPath id="clip1_80_3333">
<rect width="65.45" height="19.9986" fill="white" transform="translate(0.510254 0.500732)"/>
</clipPath>
</defs>
</svg>
