<svg width="82" height="31" viewBox="0 0 82 31" fill="none" xmlns="http://www.w3.org/2000/svg">
<g clipPath="url(#clip0_80_3256)">
<mask id="mask0_80_3256" style="mask-type:luminance" maskUnits="userSpaceOnUse" x="-68" y="1" width="149" height="29">
<path d="M80.8185 1.96533H-67.9004V29.0342H80.8185V1.96533Z" fill="white"/>
</mask>
<g mask="url(#mask0_80_3256)">
<path d="M78.2638 17.9961C79.1278 17.9961 79.6449 18.6104 79.6449 19.6167V23.0651H80.8179V19.5378C80.8179 17.8266 80.012 16.8345 78.4955 16.8345C77.9023 16.8345 76.961 16.9969 76.4003 18.088C76.2693 17.7661 76.0544 17.4857 75.7769 17.2764C75.5004 17.0671 75.1714 16.9367 74.8266 16.8992C74.6095 16.8595 74.3879 16.8464 74.1674 16.8604C73.685 16.8992 72.8255 17.1993 72.5042 17.8796V16.9651H71.3302V23.0651H72.5042V19.7732C72.5042 18.4928 73.3425 17.9961 74.1808 17.9961C74.9677 17.9961 75.4847 18.5975 75.4847 19.6037V23.0651H76.6521V19.7732C76.6521 18.754 77.2632 17.9843 78.2638 17.9961ZM67.0189 22.0458C67.555 22.0576 68.0732 21.8434 68.4493 21.4551C68.8253 21.0667 69.0257 20.5382 69.0055 19.9957C69.0055 18.767 68.1012 17.9961 67.0189 17.9961C65.9355 17.9961 65.0322 18.767 65.0322 19.9957C65.011 20.5371 65.2113 21.0643 65.5851 21.4515C65.9601 21.8398 66.4749 22.0553 67.0099 22.0458H67.0189ZM67.0189 23.1898C65.3031 23.1898 63.8705 21.9222 63.8705 19.9886C63.8705 18.0549 65.3031 16.8275 67.0189 16.8275C68.7347 16.8275 70.1785 18.0549 70.1785 19.9886C70.1785 21.9222 68.7268 23.1957 67.011 23.1957L67.0189 23.1898ZM57.8278 19.9886L57.8154 19.9957C57.8154 18.062 59.2861 16.8345 61.0131 16.8275C61.4474 16.8191 61.8783 16.9019 62.2778 17.0706C62.6785 17.2392 63.0378 17.49 63.3355 17.8066L62.4457 18.5645C62.2566 18.379 62.0327 18.2327 61.7865 18.1341C61.5414 18.0356 61.2783 17.9867 61.0131 17.9903C59.9308 17.9903 58.9895 18.7611 58.9895 19.9886C58.9895 20.8183 59.482 21.5656 60.2386 21.8834C60.9952 22.2011 61.8659 22.0246 62.4457 21.4386L63.3478 22.1964C63.0501 22.5164 62.6886 22.7702 62.2868 22.9413C61.8839 23.1123 61.4507 23.197 61.0131 23.1898C59.2984 23.1898 57.8278 21.9222 57.8278 19.9886ZM54.0694 21.894C54.0683 21.7874 54.0884 21.6815 54.1276 21.5825C54.1679 21.4835 54.2261 21.3933 54.3011 21.3171C54.3749 21.2407 54.4645 21.1799 54.5618 21.138C54.6603 21.096 54.7655 21.0737 54.8719 21.0725C54.9793 21.0737 55.0845 21.096 55.1819 21.138C55.2804 21.1799 55.3688 21.2407 55.4438 21.3171C55.5188 21.3933 55.577 21.4835 55.6162 21.5825C55.6564 21.6815 55.6766 21.7874 55.6744 21.894C55.6643 22.1005 55.5759 22.2953 55.4259 22.4385C55.277 22.5818 55.0789 22.6627 54.8719 22.6649C54.6659 22.6627 54.4678 22.5818 54.3178 22.4385C54.169 22.2953 54.0806 22.1005 54.0694 21.894Z" fill="#EFEFEF"/>
<path fillRule="evenodd" clipRule="evenodd" d="M57.2807 9.21035H53.1015L50.1724 16.7625L47.2579 9.21035H43.0799L48.16 21.1442L45.0005 29.0341H49.1483L57.2807 9.21035ZM31.8648 15.8481C31.8648 17.7546 33.5314 19.0093 35.1684 19.0093C36.7771 19.0093 38.3577 17.8418 38.3577 15.8469C38.3577 13.8521 36.7771 12.6834 35.1684 12.6834C33.5314 12.6834 31.8648 13.9392 31.8648 15.8469V15.8481ZM38.3577 22.5117V21.0017C37.5103 22.2846 35.5332 22.7695 34.5188 22.7695C31.1599 22.7695 27.7999 20.1215 27.7999 15.8469C27.7999 11.5736 31.1587 8.92554 34.5188 8.92554C35.3649 8.92554 37.3421 9.208 38.3577 10.6909V9.21506H42.2532V22.514L38.3577 22.5129V22.5117ZM26.6913 22.5117H22.7958V20.8594C22.145 22.0834 20.5668 22.7965 18.9285 22.7965C15.5403 22.7965 12.5475 20.0908 12.5475 15.9011C12.5475 11.6324 15.5403 8.92319 18.9285 8.92319C20.5644 8.92319 22.1473 9.6058 22.7958 10.831V1.96533H26.6913V22.5117ZM22.7111 15.8175C22.7111 13.8238 21.2718 12.6552 19.663 12.6552C17.9964 12.6552 16.6124 13.9085 16.6124 15.8175C16.6124 17.7876 17.9964 19.0351 19.6617 19.0351C21.3012 19.0375 22.7111 17.7264 22.7111 15.8175ZM2.91593 15.4739C2.91593 13.452 3.96095 12.7681 5.34376 12.7681C6.67016 12.7681 7.63046 13.6509 7.63046 15.4162V22.5093H11.5543V14.5629C11.5543 10.7756 9.69007 8.92319 6.72546 8.92319C5.1732 8.92319 3.62082 9.80587 2.9147 11.1452V9.21035H-1.00664V22.5093H2.91593V15.4739ZM-8.97422 22.7377C-12.7001 22.7377 -15.8084 20.0037 -15.8084 15.8163C-15.8084 11.6265 -12.7037 8.91966 -8.97422 8.91966C-5.24461 8.91966 -2.11288 11.6265 -2.11288 15.8163C-2.11288 20.0061 -5.24819 22.7389 -8.97422 22.7389V22.7377ZM-8.97422 18.8657C-7.33835 18.8657 -5.9814 17.6676 -5.9814 15.8175C-5.9814 14.0227 -7.33712 12.7976 -8.97422 12.7976C-9.3683 12.7914 -9.7597 12.8655 -10.1242 13.0155C-10.4889 13.1654 -10.819 13.3879 -11.0949 13.6697C-11.3723 13.9528 -11.59 14.2889 -11.7349 14.6578C-11.88 15.0268 -11.9492 15.4213 -11.9387 15.8175C-11.9376 17.6699 -10.583 18.8657 -8.97422 18.8657ZM-22.8426 12.7693C-21.6857 12.7693 -20.6688 13.6814 -20.6688 15.4173V22.5117H-16.7734V14.9583C-16.7734 10.9428 -18.7259 8.92084 -21.8551 8.92084C-22.7849 8.92084 -24.5361 9.20329 -25.8071 11.2841C-26.5416 9.74585 -27.9526 8.9479 -30.038 8.9479C-30.7621 8.94422 -31.4719 9.14915 -32.0825 9.53817C-32.6932 9.92721 -33.1789 10.4839 -33.4816 11.1417V9.21153H-37.4077V22.5106H-33.4851V15.4739C-33.4851 13.452 -32.3836 12.7681 -31.1984 12.7681C-30.0686 12.7681 -29.0541 13.6509 -29.0248 15.3314V22.5106H-25.101V15.4739C-25.101 13.5402 -24.0842 12.7705 -22.8426 12.7705V12.7693Z" fill="#EFEFEF"/>
</g>
</g>
<defs>
<clipPath id="clip0_80_3256">
<rect width="150" height="29.1" fill="white" transform="translate(-68.8696 0.949951)"/>
</clipPath>
</defs>
</svg>
