<svg width="87" height="17" viewBox="0 0 87 17" fill="none" xmlns="http://www.w3.org/2000/svg">
<g clipPath="url(#clip0_80_3330)">
<g clipPath="url(#clip1_80_3330)">
<path fillRule="evenodd" clipRule="evenodd" d="M81.2115 3.63849C82.7424 3.63849 84.3461 3.98015 85.4639 4.41943V1.41768C84.3218 1.05161 82.7424 0.685547 80.6769 0.685547C76.7647 0.685547 74.1161 2.14981 74.1161 5.20037C74.1161 10.4718 81.6732 9.39794 81.6732 11.8384C81.6732 12.7902 80.7742 13.327 79.0003 13.327C77.3965 13.327 75.5254 13.2782 74.0675 12.5949V15.5723C75.5254 16.0848 77.6395 16.3044 79.2433 16.3044C83.3013 16.3044 86.2415 15.0842 86.2415 11.3259C86.2415 6.29857 78.6357 7.76284 78.6357 4.7855C78.6114 3.66289 79.8264 3.63849 81.2115 3.63849ZM65.2468 12.2288H63.886V16.3044H59.1477V0.685547C59.2449 0.685547 62.9141 0.75876 64.5664 0.685547C69.4506 0.75876 72.7067 2.32065 72.7067 6.12774C72.7067 10.5694 69.5235 12.2288 65.2468 12.2288ZM64.5907 3.39444C64.3478 3.39444 64.1776 3.39444 63.9103 3.39444V9.49556H64.5907C66.972 9.49556 67.9684 8.76342 67.9684 6.10334C67.9684 4.46824 66.8506 3.41885 64.5907 3.39444ZM51.7363 0.685547H56.4747V16.3044H51.7363V0.685547ZM40.2426 16.3044V0.685547H44.9811V12.9122H49.7195L49.0391 16.3044H40.2426ZM32.8071 0.685547H37.5455V16.3044H32.8071V0.685547ZM25.3715 10.2033H20.6331V16.3044H15.8947V0.685547H20.6331V6.78667H25.3715V0.685547H30.1098V16.3044H25.3715V10.2033ZM7.09829 12.2288H5.73752V16.3044H1.02344V0.685547C1.12064 0.685547 4.78985 0.75876 6.4422 0.685547C11.3264 0.75876 14.5582 2.32065 14.5582 6.12774C14.5582 10.5694 11.375 12.2288 7.09829 12.2288ZM6.4422 3.39444C6.19921 3.39444 6.02912 3.39444 5.76182 3.39444V9.49556H6.4422C8.82356 9.49556 9.81983 8.76342 9.81983 6.10334C9.81983 4.46824 8.70206 3.41885 6.4422 3.39444Z" fill="#EFEFEF"/>
</g>
</g>
<defs>
<clipPath id="clip0_80_3330">
<rect width="86" height="15.82" fill="white" transform="translate(0.510254 0.589966)"/>
</clipPath>
<clipPath id="clip1_80_3330">
<rect width="85.9669" height="15.81" fill="white" transform="translate(0.526855 0.589966)"/>
</clipPath>
</defs>
</svg>
