<svg width="127" height="27" viewBox="0 0 127 27" fill="none" xmlns="http://www.w3.org/2000/svg">
<g clip-path="url(#clip0_80_3274)">
<g clip-path="url(#clip1_80_3274)">
<mask id="mask0_80_3274" style="mask-type:luminance" maskUnits="userSpaceOnUse" x="0" y="1" width="127" height="25">
<path d="M126.014 1.19934H0.92334V25.8004H126.014V1.19934Z" fill="white"/>
</mask>
<g mask="url(#mask0_80_3274)">
<path d="M15.4338 5.82221L8.17859 10.4451L15.4338 15.0679L8.17859 19.6909L0.92334 15.0429L8.17859 10.4201L0.92334 5.82221L8.17859 1.19934L15.4338 5.82221ZM8.14107 21.1776L15.3963 16.5547L22.6515 21.1776L15.3963 25.8005L8.14107 21.1776ZM15.4338 15.0429L22.6891 10.4201L15.4338 5.82221L22.6515 1.19934L29.9068 5.82221L22.6515 10.4451L29.9068 15.0679L22.6515 19.6909L15.4338 15.0429Z" fill="#EFEFEF"/>
<path d="M35.5986 5.82184H41.4654C45.2056 5.82184 48.2953 7.98335 48.2953 12.9186V13.9555C48.2953 18.9283 45.4057 21.1648 41.578 21.1648H35.5986V5.82184ZM38.876 8.60805V18.366H41.3903C43.5169 18.366 44.9429 16.9792 44.9429 13.8931V13.081C44.9429 9.99492 43.4419 8.60805 41.2778 8.60805H38.876ZM50.0342 8.75799H52.661L53.0863 11.6441C53.5867 9.68256 54.8626 8.63305 57.1768 8.63305H57.9898V11.944H56.6389C53.9745 11.944 53.324 12.8686 53.324 15.4924V21.2023H50.0841V8.75799H50.0342ZM58.6404 15.23V14.8802C58.6404 10.7196 61.3047 8.44563 64.9324 8.44563C68.6351 8.44563 71.2245 10.7196 71.2245 14.8802V15.23C71.2245 19.3157 68.7102 21.5146 64.9324 21.5146C60.917 21.4771 58.6404 19.3281 58.6404 15.23ZM67.9096 15.1925V14.8802C67.9096 12.5688 66.7462 11.1819 64.8949 11.1819C63.0811 11.1819 61.8802 12.4563 61.8802 14.8802V15.1925C61.8802 17.429 63.0435 18.7034 64.8949 18.7034C66.7462 18.6659 67.9096 17.429 67.9096 15.1925ZM72.9256 8.75799H75.6277L75.9403 11.1069C76.5909 9.53263 77.9794 8.44563 80.0308 8.44563C83.1956 8.44563 85.2846 10.7196 85.2846 14.9301V15.28C85.2846 19.3656 82.9704 21.5271 80.0308 21.5271C78.0669 21.5271 76.7159 20.64 76.0529 19.2157V25.5003H72.8882L72.9256 8.75799ZM81.9948 15.1925V14.9176C81.9948 12.4437 80.7188 11.2194 79.0176 11.2194C77.2038 11.2194 76.003 12.6062 76.003 14.9176V15.155C76.003 17.3541 77.1662 18.7408 78.9801 18.7408C80.8439 18.7034 81.9948 17.5165 81.9948 15.1925ZM90.0756 18.9033L89.8004 21.1773H87.0234V4.59741H90.1882V10.957C90.8887 9.33273 92.2772 8.44563 94.2411 8.44563C97.2183 8.48311 99.4199 10.5322 99.4199 14.6553V15.0426C99.4199 19.1657 97.3309 21.5271 94.166 21.5271C92.077 21.4771 90.7261 20.515 90.0756 18.9033ZM96.0925 15.0426V14.7302C96.0925 12.4563 94.854 11.1819 93.1153 11.1819C91.3391 11.1819 90.1006 12.6062 90.1006 14.7677V15.0426C90.1006 17.3541 91.3015 18.7034 93.0778 18.7034C94.9792 18.7034 96.0925 17.5165 96.0925 15.0426ZM100.808 15.23V14.8802C100.808 10.7196 103.473 8.44563 107.1 8.44563C110.803 8.44563 113.392 10.7196 113.392 14.8802V15.23C113.392 19.3157 110.841 21.5146 107.1 21.5146C103.085 21.4771 100.808 19.3281 100.808 15.23ZM110.102 15.1925V14.8802C110.102 12.5688 108.94 11.1819 107.088 11.1819C105.274 11.1819 104.073 12.4563 104.073 14.8802V15.1925C104.073 17.429 105.237 18.7034 107.088 18.7034C108.952 18.6659 110.102 17.429 110.102 15.1925ZM117.633 14.7302L113.268 8.75799H117.007L119.522 12.4938L122.074 8.75799H125.777L121.348 14.6927L126.014 21.1773H122.349L119.497 17.0542L116.72 21.1773H112.892L117.633 14.7302Z" fill="#EFEFEF"/>
</g>
</g>
</g>
<defs>
<clipPath id="clip0_80_3274">
<rect width="126.75" height="26" fill="white" transform="translate(0.130371 0.5)"/>
</clipPath>
<clipPath id="clip1_80_3274">
<rect width="126.75" height="26" fill="white" transform="translate(0.130371 0.5)"/>
</clipPath>
</defs>
</svg>
