<svg width="67" height="23" viewBox="0 0 67 23" fill="none" xmlns="http://www.w3.org/2000/svg">
<g clip-path="url(#clip0_80_3323)">
<g clip-path="url(#clip1_80_3323)">
<mask id="mask0_80_3323" style="mask-type:luminance" maskUnits="userSpaceOnUse" x="0" y="0" width="67" height="23">
<path d="M66.031 0.925049H0.467773V22.0745H66.031V0.925049Z" fill="white"/>
</mask>
<g mask="url(#mask0_80_3323)">
<path d="M28.6076 0.937859L17.6299 9.17476C17.1141 7.14877 15.9217 5.34793 14.2408 4.05606C12.56 2.76417 10.4862 2.05472 8.34639 2.03952H0.467773V20.9728H8.34639C10.4976 21.0011 12.5935 20.3079 14.2834 19.0091C15.9734 17.7102 17.1548 15.8846 17.6299 13.8376L28.6076 22.0745L39.5851 13.8376V20.9728H51.9677V17.1299H43.8001V2.02671H39.2962V9.16192L28.8834 17.3988L26.6379 15.4773L31.7065 11.6343L37.0508 7.52223L33.9519 5.04989L23.539 13.0049L21.2936 11.0834L31.7065 3.39738L28.6076 0.925049V0.937859ZM4.68284 5.86973H8.05754C8.75586 5.87105 9.44568 6.01963 10.0797 6.30527C10.7237 6.59424 11.3037 7.0033 11.7867 7.50942C12.2952 8.04214 12.6962 8.66363 12.9685 9.34124C13.5285 10.7815 13.5285 12.3718 12.9685 13.812C12.7138 14.4875 12.3356 15.1126 11.8523 15.6566C11.3827 16.1914 10.8063 16.6272 10.1585 16.9376C9.49114 17.252 8.75921 17.414 8.01812 17.4116H4.68284V5.88254V5.86973ZM66.0179 17.1299V20.9728H53.6484V2.02671H58.1524V17.1299H66.031H66.0179Z" fill="#EFEFEF"/>
</g>
</g>
</g>
<defs>
<clipPath id="clip0_80_3323">
<rect width="66.13" height="23" fill="white" transform="translate(0.380371)"/>
</clipPath>
<clipPath id="clip1_80_3323">
<rect width="66.125" height="23" fill="white" transform="translate(0.382812)"/>
</clipPath>
</defs>
</svg>
