<svg width="78" height="25" viewBox="0 0 78 25" fill="none" xmlns="http://www.w3.org/2000/svg">
<g clipPath="url(#clip0_80_3344)">
<g clipPath="url(#clip1_80_3344)">
<path d="M19.9641 24.4998L62.5388 20.6133H16.2739L19.9641 24.4998Z" fill="#EFEFEF"/>
<path d="M72.4125 4.58154C71.5391 4.60303 70.6901 4.88983 69.9678 5.40744V4.87304H67.1079V18.0873H69.9678V10.3629C69.9477 10.0244 69.9935 9.68521 70.1027 9.36615C70.2118 9.04718 70.3818 8.75508 70.6022 8.50792C70.8226 8.26077 71.0889 8.06379 71.3843 7.92915C71.6797 7.7945 71.9983 7.72503 72.3202 7.72503C72.6422 7.72503 72.9607 7.7945 73.2562 7.92915C73.5517 8.06379 73.8178 8.26077 74.0382 8.50792C74.2587 8.75508 74.4287 9.04718 74.5378 9.36615C74.6469 9.68521 74.6929 10.0244 74.6727 10.3629V18.1359H77.5325V10.3629C77.5325 7.15639 75.4569 4.58154 72.4125 4.58154Z" fill="#EFEFEF"/>
<path d="M60.5095 4.53223C57.1884 4.53223 54.8359 7.59289 54.8359 11.4795C54.8359 15.5604 57.788 18.4266 60.7863 18.4266C62.3084 18.4266 64.1996 17.8923 65.8141 15.4632L63.2771 13.9086C61.3398 16.9206 58.0648 15.4146 57.6957 12.3539H65.9063C66.6443 7.69006 63.7384 4.53223 60.5095 4.53223ZM57.8803 9.77905C58.48 6.71842 62.4468 6.52409 63.0003 9.77905H57.8803Z" fill="#EFEFEF"/>
<path d="M48.7493 13.7144C48.7239 14.3199 48.8145 14.9247 49.0158 15.4926C49.2171 16.0604 49.5251 16.5797 49.9212 17.0195C50.3172 17.4593 50.7933 17.8107 51.321 18.0524C51.8488 18.2942 52.4174 18.4215 52.9929 18.4268C53.9652 18.3909 54.9148 18.1076 55.7605 17.6009L53.9155 14.9775C53.6321 15.1904 53.2947 15.3088 52.9468 15.3175C52.7567 15.3119 52.5698 15.2651 52.3977 15.18C52.2256 15.0947 52.072 14.9732 51.9465 14.8227C51.8209 14.6724 51.7262 14.4962 51.6682 14.3055C51.6101 14.1149 51.5901 13.9136 51.6091 13.7144V8.03025H54.0538V4.87243H51.6091V1.56885H48.7493V4.87243H47.2271V8.03025H48.7493V13.7144Z" fill="#EFEFEF"/>
<path d="M40.9496 18.4274C41.823 18.4059 42.672 18.1191 43.3943 17.6016V18.0873H46.2542V4.87305H43.3943V12.6462C43.4144 12.9846 43.3686 13.3238 43.2594 13.6428C43.1503 13.9618 42.9804 14.2539 42.7599 14.5011C42.5395 14.7482 42.2733 14.9452 41.9779 15.0798C41.6824 15.2145 41.3638 15.2839 41.0419 15.2839C40.7199 15.2839 40.4014 15.2145 40.1059 15.0798C39.8104 14.9452 39.5443 14.7482 39.3239 14.5011C39.1034 14.2539 38.9335 13.9618 38.8243 13.6428C38.7152 13.3238 38.6693 12.9846 38.6895 12.6462V4.87305H35.8296V12.6462C35.8296 15.8526 37.9053 18.4274 40.9496 18.4274Z" fill="#EFEFEF"/>
<path d="M27.9469 12.6941L32.1906 18.1353H36.1574L30.4839 11.0909L35.3733 4.87238H31.4064L27.9469 9.48771V0.5H25.041V18.1353H27.9469V12.6941Z" fill="#EFEFEF"/>
<path d="M20.5655 17.5036V18.0867H23.4254V4.87231H20.5655V5.45529C19.7861 4.86294 18.8512 4.54038 17.8901 4.53223C14.6613 4.53223 12.1704 7.64148 12.1704 11.4795C12.1704 15.3175 14.6152 18.4266 17.8901 18.4266C18.8524 18.4261 19.7894 18.1028 20.5655 17.5036ZM15.0764 11.5281C15.0764 9.43905 16.2296 7.78722 17.844 7.78722C19.4584 7.78722 20.5655 9.43905 20.5655 11.5281C20.5655 13.6171 19.4584 15.2689 17.844 15.2689C16.2296 15.2689 15.0764 13.6171 15.0764 11.5281Z" fill="#EFEFEF"/>
<path d="M11.2466 7.25295C11.2454 5.74583 10.6764 4.3008 9.66462 3.2351C8.65278 2.1694 7.2808 1.57013 5.84985 1.56885H0.960449V18.0868H3.95867V12.9856H6.03436L9.67835 18.0868H13.4146L8.98645 11.9169C9.69311 11.3898 10.2679 10.6902 10.6615 9.87786C11.0552 9.06562 11.2559 8.16488 11.2466 7.25295ZM5.89598 9.87641H3.95867V4.72668H5.89598C6.54436 4.72668 7.16617 4.99796 7.62465 5.48083C8.08311 5.96371 8.34068 6.61863 8.34068 7.30153C8.34068 7.98442 8.08311 8.63934 7.62465 9.12218C7.16617 9.60512 6.54436 9.87641 5.89598 9.87641Z" fill="#EFEFEF"/>
</g>
</g>
<defs>
<clipPath id="clip0_80_3344">
<rect width="77" height="24" fill="white" transform="translate(0.959961 0.5)"/>
</clipPath>
<clipPath id="clip1_80_3344">
<rect width="77" height="24" fill="white" transform="translate(0.959961 0.5)"/>
</clipPath>
</defs>
</svg>
